HIERARCHY
ROOT Hips
{
	OFFSET 0.000000 0.000000 0.000000
	CHANNELS 6 Xposition Yposition Zposition Zrotation Yrotation Xrotation 
	JOINT LeftUpLeg_virtual
	{
		OFFSET 0.000000 0.000000 0.000000
		CHANNELS 3 Zrotation Yrotation Xrotation
		JOINT LeftUpLeg
		{
			OFFSET 10.205400 -3.823500 0.155100
			CHANNELS 3 Zrotation Yrotation Xrotation
			JOINT LeftLeg
			{
				OFFSET 0.708757 -12.982077 0.567790
				CHANNELS 3 Zrotation Yrotation Xrotation
				JOINT LeftFoot
				{
					OFFSET -0.708756 -10.717838 -2.184338
					CHANNELS 3 Zrotation Yrotation Xrotation
					JOINT LeftToeBase
					{
						OFFSET 0.108149 -7.191104 7.560241
						CHANNELS 3 Zrotation Yrotation Xrotation
						End Site
						{
							OFFSET 0.000000 0.000000 0.000000
						}
					}
				}
			}
		}
	}
	JOINT RightUpLeg_virtual
	{
		OFFSET 0.000000 0.000000 0.000000
		CHANNELS 3 Zrotation Yrotation Xrotation
		JOINT RightUpLeg
		{
			OFFSET -10.205400 -3.823500 0.005500
			CHANNELS 3 Zrotation Yrotation Xrotation
			JOINT RightLeg
			{
				OFFSET -0.708756 -12.982134 0.610632
				CHANNELS 3 Zrotation Yrotation Xrotation
				JOINT RightFoot
				{
					OFFSET 0.708754 -10.717769 -1.945823
					CHANNELS 3 Zrotation Yrotation Xrotation
					JOINT RightToeBase
					{
						OFFSET -0.108140 -7.191069 7.372968
						CHANNELS 3 Zrotation Yrotation Xrotation
						End Site
						{
							OFFSET 0.000000 0.000000 0.000000
						}
					}
				}
			}
		}
	}
	JOINT Spine_virtual
	{
		OFFSET 0.000000 0.000000 0.000000
		CHANNELS 3 Zrotation Yrotation Xrotation
		JOINT Spine
		{
			OFFSET 0.000000 6.876099 0.125700
			CHANNELS 3 Zrotation Yrotation Xrotation
			JOINT Spine1
			{
				OFFSET 0.000000 8.022060 0.146608
				CHANNELS 3 Zrotation Yrotation Xrotation
				JOINT Spine2
				{
					OFFSET 0.000000 9.168068 0.167552
					CHANNELS 3 Zrotation Yrotation Xrotation
					JOINT Neck_virtual
					{
						OFFSET 0.000000 0.000000 0.000000
						CHANNELS 3 Zrotation Yrotation Xrotation
						JOINT Neck
						{
							OFFSET 0.000000 10.314075 0.188496
							CHANNELS 3 Zrotation Yrotation Xrotation
							JOINT Head
							{
								OFFSET 0.000000 7.643700 -2.377400
								CHANNELS 3 Zrotation Yrotation Xrotation
								End Site
								{
									OFFSET 0.000000 0.000000 0.000000
								}
							}
						}
					}
					JOINT LeftShoulder_virtual
					{
						OFFSET 0.000000 0.000000 0.000000
						CHANNELS 3 Zrotation Yrotation Xrotation
						JOINT LeftShoulder
						{
							OFFSET 4.392200 8.824978 0.174984
							CHANNELS 3 Zrotation Yrotation Xrotation
							JOINT LeftArm
							{
								OFFSET 8.771219 -2.981674 -0.026999
								CHANNELS 3 Zrotation Yrotation Xrotation
								JOINT LeftForeArm
								{
									OFFSET 8.512804 0.000000 -0.000000
									CHANNELS 3 Zrotation Yrotation Xrotation
									JOINT LeftHand
									{
										OFFSET 18.484802 0.000000 -0.000000
										CHANNELS 3 Zrotation Yrotation Xrotation
										End Site
										{
											OFFSET 0.000000 0.000000 0.000000
										}
									}
								}
							}
						}
					}
					JOINT RightShoulder_virtual
					{
						OFFSET 0.000000 0.000000 0.000000
						CHANNELS 3 Zrotation Yrotation Xrotation
						JOINT RightShoulder
						{
							OFFSET -4.392200 8.824993 0.141379
							CHANNELS 3 Zrotation Yrotation Xrotation
							JOINT RightArm
							{
								OFFSET -8.771282 -2.981682 -0.094208
								CHANNELS 3 Zrotation Yrotation Xrotation
								JOINT RightForeArm
								{
									OFFSET -8.494598 0.000000 0.000000
									CHANNELS 3 Zrotation Yrotation Xrotation
									JOINT RightHand
									{
										OFFSET -18.483803 0.000000 0.000001
										CHANNELS 3 Zrotation Yrotation Xrotation
										End Site
										{
											OFFSET 0.000000 0.000000 0.000000
										}
									}
								}
							}
						}
					}
				}
			}
		}
	}
}
MOTION
Frames: 9
Frame Time: 0.033333
-15.166953 17.708193 0.367237 -179.873373 7.620585 -179.866871 -0.649661 -7.413594 0.837175 15.884407 20.292262 -51.410387 12.115033 -10.764602 127.647001 -8.897316 -10.152708 9.114058 0.000000 0.000000 0.000000 -1.255499 -3.229739 5.924184 -18.878289 4.360801 -82.532242 -14.371935 1.938993 136.413795 -10.374530 18.854775 -4.748353 0.000000 0.000000 0.000000 -0.057678 -0.276773 4.379435 5.863687 4.496488 8.045542 -1.400075 -2.080316 6.073844 -0.026502 0.165381 0.015146 -1.636182 -0.831747 9.997013 13.170264 -6.287319 3.207130 0.000000 0.000000 0.000000 0.977796 -0.151651 5.774228 -10.683500 -10.458273 6.694190 -43.084222 11.739091 7.782359 -170.401704 -86.207076 -171.085761 0.000000 0.000000 0.000000 -4.712842 1.344680 4.888542 25.987164 4.300426 8.613707 42.368524 -8.200445 -3.168168 -3.100668 40.359963 -6.725112 0.000000 0.000000 0.000000 
-14.310392 17.383814 1.045052 -179.990839 7.565423 -179.893058 -0.164696 -6.810869 1.708504 15.965921 21.080329 -52.014513 12.771884 -9.840150 129.315657 -8.977956 -9.082923 6.776086 0.000000 0.000000 0.000000 -0.430888 -3.576657 5.249215 -18.244221 4.255274 -85.892190 -17.701595 2.181747 139.244321 -12.321658 17.605806 -4.573002 0.000000 0.000000 0.000000 0.263548 -0.508391 4.973183 6.159991 4.640293 8.463535 -1.391419 -2.044156 6.050620 -0.003037 -0.021148 0.021860 -1.614777 -0.859799 9.800461 13.327621 -6.487246 1.775701 0.000000 0.000000 0.000000 0.952049 -0.152129 5.654838 -10.917852 -10.589608 6.584564 -43.633878 10.741409 7.902116 -168.579956 -86.170397 -172.903739 0.000000 0.000000 0.000000 -4.687383 1.374424 4.594805 26.002668 4.481705 8.733690 41.110171 -6.158560 -4.336390 -2.638418 38.527007 -6.706036 0.000000 0.000000 0.000000 
-13.481177 17.052235 1.640740 -179.892826 8.414020 -179.966619 0.568248 -7.120006 1.321812 18.774993 23.504312 -51.463112 10.229726 -9.970531 129.133086 -9.296619 -10.512498 7.524831 0.000000 0.000000 0.000000 0.142423 -3.217572 5.183069 -17.151838 4.696255 -88.950708 -17.924911 2.522442 141.368059 -12.489725 18.436074 -5.689405 0.000000 0.000000 0.000000 0.885611 -0.459776 5.711467 6.430425 4.798062 8.788153 -1.353666 -1.951494 5.956699 -0.005013 0.004312 0.027126 -1.591315 -0.603245 9.522549 13.336273 -6.907052 0.565766 0.000000 0.000000 0.000000 0.951940 -0.084680 5.386985 -10.998476 -10.650626 6.599039 -44.219464 10.163356 8.464156 -168.452491 -86.080335 -172.897892 0.000000 0.000000 0.000000 -4.766145 1.327313 4.346307 25.824704 4.724130 8.709080 39.699054 -4.227502 -5.427342 -2.084324 36.866817 -6.620207 0.000000 0.000000 0.000000 
-12.629997 16.731422 2.158482 179.989869 9.335269 -179.946169 1.187602 -6.915592 1.319603 21.556453 25.411620 -50.752721 10.176097 -10.126654 129.328034 -10.408734 -9.668026 6.424073 0.000000 0.000000 0.000000 1.026154 -3.228424 5.203557 -16.770314 5.701351 -92.071817 -14.218120 2.116866 143.435844 -11.356831 21.277093 -8.649086 0.000000 0.000000 0.000000 1.510351 -0.392749 6.449783 6.523081 4.893791 8.999103 -1.324154 -1.855458 5.783592 0.004331 0.047953 0.015615 -1.497064 -0.680709 9.293633 13.331854 -7.043734 -0.369117 0.000000 0.000000 0.000000 1.078345 -0.037364 5.132284 -11.011446 -10.660108 6.587166 -44.760234 10.047328 9.295598 -168.038909 -85.992976 -173.078100 0.000000 0.000000 0.000000 -4.737984 1.424386 3.992550 25.432472 4.769547 8.613284 38.103429 -2.464946 -6.450567 -1.637956 35.477392 -6.685580 0.000000 0.000000 0.000000 
-11.776180 16.412661 2.613538 179.940705 10.443580 -179.911076 2.205818 -6.234113 1.785923 23.264789 27.226140 -49.926746 11.357070 -9.898186 130.024235 -9.654407 -8.376208 2.265946 0.000000 0.000000 0.000000 1.980257 -3.494759 5.645901 -17.282479 6.857278 -95.011845 -9.036782 0.216740 145.247169 -10.271007 24.418355 -13.542200 0.000000 0.000000 0.000000 2.314928 -0.329227 7.228696 6.482892 4.932452 9.237181 -1.321995 -1.822602 5.602108 -0.011155 0.034756 0.035208 -1.389920 -0.642836 9.020073 13.426126 -7.283137 -1.123390 0.000000 0.000000 0.000000 1.188536 0.069784 4.762891 -11.056274 -10.504735 6.661893 -45.449848 10.429151 10.319207 -168.969045 -85.985511 -171.832902 0.000000 0.000000 0.000000 -4.681211 1.538912 3.647401 24.933648 4.998723 8.598598 36.363517 -0.944172 -7.522281 -1.218678 34.341337 -6.753893 0.000000 0.000000 0.000000 
-10.973818 16.085176 3.051337 179.985771 11.432460 -179.791302 3.415625 -5.519548 2.291542 24.630671 28.395946 -49.062454 12.535411 -9.590833 130.733495 -9.867093 -7.273846 -1.994486 0.000000 0.000000 0.000000 2.578618 -3.802737 6.404002 -16.113712 7.965789 -97.731804 -7.048646 -0.482053 146.634148 -10.919517 25.142392 -17.565981 0.000000 0.000000 0.000000 3.306018 -0.457879 7.969554 6.324322 5.000854 9.574031 -1.323654 -1.761082 5.422363 0.022808 0.058363 0.021862 -1.390365 -0.612288 8.834629 13.485429 -7.511587 -1.784192 0.000000 0.000000 0.000000 1.158679 0.160289 4.523283 -11.167919 -10.348826 6.606950 -46.271567 11.112073 11.402897 -170.339495 -86.089186 -170.107951 0.000000 0.000000 0.000000 -4.747222 1.577852 3.325198 24.359858 5.148665 8.483969 34.541243 0.309606 -8.678631 -0.779534 33.410683 -6.800576 0.000000 0.000000 0.000000 
-10.237867 15.757449 3.462002 179.945746 12.175365 -179.954598 4.460224 -5.436142 2.873348 26.263536 29.275512 -48.175442 13.188644 -9.754609 130.591906 -11.857204 -6.784441 -3.307485 0.000000 0.000000 0.000000 3.420990 -3.980732 7.296168 -14.009054 8.661802 -100.469419 -6.583488 -0.466441 148.142855 -12.205155 24.228030 -19.804706 0.000000 0.000000 0.000000 4.399800 -0.789082 8.909962 6.045766 5.105476 10.159790 -1.393924 -1.712454 5.272664 0.018176 0.060632 -0.030060 -1.420809 -0.764107 8.699566 13.479532 -7.625078 -2.271266 0.000000 0.000000 0.000000 1.101019 0.108603 4.299957 -11.383898 -10.159146 6.433885 -47.057080 11.914773 12.273461 -170.067872 -86.238440 -170.048337 0.000000 0.000000 0.000000 -4.796644 1.499589 2.996718 23.793244 5.171100 8.436882 32.819045 1.202834 -9.855735 -0.422664 32.530173 -6.871429 0.000000 0.000000 0.000000 
-9.569630 15.440739 3.871306 179.912756 12.763051 -179.976168 5.293496 -6.074597 3.305498 28.216988 30.384213 -46.976381 12.584684 -9.668737 129.916878 -13.144095 -7.427172 -3.251904 0.000000 0.000000 0.000000 4.411854 -3.858191 7.570849 -11.217964 9.222530 -102.583342 -8.234988 0.066213 149.637328 -14.109377 21.858043 -20.528934 0.000000 0.000000 0.000000 5.596213 -1.311666 9.714034 5.699156 5.224045 10.778952 -1.476749 -1.834521 5.141467 0.114206 -0.097022 -0.008470 -1.587161 -0.633642 8.583841 13.544635 -7.774107 -2.751889 0.000000 0.000000 0.000000 0.864659 0.194183 4.021196 -11.690314 -9.832320 6.346352 -47.696369 12.709455 12.928037 -170.898450 -86.377338 -168.932776 0.000000 0.000000 0.000000 -5.013112 1.547474 2.705666 23.320632 5.191036 8.287948 31.154801 1.748484 -11.265273 -0.003943 31.688116 -6.810538 0.000000 0.000000 0.000000 
-8.935525 15.158216 4.240341 179.942276 13.365898 179.988517 5.929592 -7.032020 3.951940 29.744552 31.710656 -45.304044 10.365168 -8.994318 128.420698 -12.531614 -10.165727 1.258144 0.000000 0.000000 0.000000 5.478293 -3.804723 7.702438 -9.533618 9.444255 -104.267687 -10.942919 0.071877 151.037285 -15.974597 19.241177 -20.737298 0.000000 0.000000 0.000000 6.753466 -1.888078 10.558436 5.240707 5.220884 11.405196 -1.510746 -1.701875 4.981348 0.018985 -0.018094 0.003544 -1.669770 -0.746446 8.452324 13.529252 -7.996867 -3.217669 0.000000 0.000000 0.000000 0.723455 0.241033 3.745879 -11.873766 -9.635556 6.320367 -47.972513 12.987383 13.351475 -173.419446 -86.541017 -166.214511 0.000000 0.000000 0.000000 -5.113077 1.567929 2.338981 23.012658 5.124980 8.314481 29.662275 1.914631 -13.184686 0.459774 30.771638 -6.686164 0.000000 0.000000 0.000000 
